# xmcd CD database file
#
# Track frame offsets:
#	150
#	18496
#	35513
#	55933
#	73379
#	90230
#	121709
#	134260
#	159363
#	175479
#	198494
#	226655
#	259730
#	294209
#	324075
#
# Disc length: 4725 seconds
#
# Revision: 0
# Processed by: cddbd v1.5.2PL0 Copyright (c) Steve Scherf et al.
# Submitted via: CDex 1.51
#
DISCID=c312730f
DTITLE=Dexter Gordon - There he blows - CD2
DYEAR=2011
DGENRE=Jazz
TTITLE0=Silver Plated
TTITLE1=Cry Me a River
TTITLE2=Rhythm Mad
TTITLE3=Don't Worry about me
TTITLE4=I Hear Music
TTITLE5=Bonna Rue
TTITLE6=I Should care
TTITLE7=Blowin' for Dootsie
TTITLE8=Tenderly
TTITLE9=Home Run
TTITLE10=Dolo
TTITLE11=Lovely Lisa
TTITLE12=Affair in Havana
TTITLE13=Jodi
TTITLE14=Field Day
EXTD=YEAR: 2011
EXTT0=
EXTT1=
EXTT2=
EXTT3=
EXTT4=
EXTT5=
EXTT6=
EXTT7=
EXTT8=
EXTT9=
EXTT10=
EXTT11=
EXTT12=
EXTT13=
EXTT14=
PLAYORDER=
